REM DIRINDEX 1\3,1\4,1\5,1\6,1\2\7,1\2\8,1\2\9,1\10
REM DIRNAME folder01,folder02,folder03,folder04,folder05,folder06,folder07,folder08,folder09,folder10
TITLE ""
FILE "2-32 Level 5-804-814.mp3" MP3
  TRACK 01 AUDIO
    TITLE "0:"
    INDEX 01 00:00:00
  TRACK 02 AUDIO
    TITLE "7:cjc056_2752"
    INDEX 01 00:00:07
  TRACK 03 AUDIO
    TITLE "0:"
    INDEX 01 00:01:03
  TRACK 04 AUDIO
    TITLE "8:cjc056_2753"
    INDEX 01 00:01:15
  TRACK 05 AUDIO
    TITLE "0:"
    INDEX 01 00:02:10
  TRACK 06 AUDIO
    TITLE "9:cjc056_2754"
    INDEX 01 00:02:24
  TRACK 07 AUDIO
    TITLE "0:"
    INDEX 01 00:04:50
  TRACK 08 AUDIO
    TITLE "7:cjc056_2755"
    INDEX 01 00:05:28
  TRACK 09 AUDIO
    TITLE "0:"
    INDEX 01 00:06:37
  TRACK 10 AUDIO
    TITLE "8:cjc056_2756"
    INDEX 01 00:06:51
  TRACK 11 AUDIO
    TITLE "0:"
    INDEX 01 00:07:51
  TRACK 12 AUDIO
    TITLE "9:cjc056_2757"
    INDEX 01 00:07:66
  TRACK 13 AUDIO
    TITLE "0:"
    INDEX 01 00:10:55
  TRACK 14 AUDIO
    TITLE "7:cjc056_2758"
    INDEX 01 00:11:35
  TRACK 15 AUDIO
    TITLE "0:"
    INDEX 01 00:12:32
  TRACK 16 AUDIO
    TITLE "8:cjc056_2759"
    INDEX 01 00:12:48
  TRACK 17 AUDIO
    TITLE "0:"
    INDEX 01 00:13:49
  TRACK 18 AUDIO
    TITLE "9:cjc056_2760"
    INDEX 01 00:13:63
  TRACK 19 AUDIO
    TITLE "0:"
    INDEX 01 00:17:06
  TRACK 20 AUDIO
    TITLE "7:cjc056_2761"
    INDEX 01 00:17:57
  TRACK 21 AUDIO
    TITLE "0:"
    INDEX 01 00:18:60
  TRACK 22 AUDIO
    TITLE "8:cjc056_2762"
    INDEX 01 00:19:11
  TRACK 23 AUDIO
    TITLE "0:"
    INDEX 01 00:20:26
  TRACK 24 AUDIO
    TITLE "9:cjc056_2763"
    INDEX 01 00:20:39
  TRACK 25 AUDIO
    TITLE "0:"
    INDEX 01 00:22:60
  TRACK 26 AUDIO
    TITLE "7:cjc056_2764"
    INDEX 01 00:23:36
  TRACK 27 AUDIO
    TITLE "0:"
    INDEX 01 00:24:29
  TRACK 28 AUDIO
    TITLE "8:cjc056_2765"
    INDEX 01 00:24:43
  TRACK 29 AUDIO
    TITLE "0:"
    INDEX 01 00:25:35
  TRACK 30 AUDIO
    TITLE "9:cjc056_2766"
    INDEX 01 00:25:45
  TRACK 31 AUDIO
    TITLE "0:"
    INDEX 01 00:29:52
  TRACK 32 AUDIO
    TITLE "7:cjc056_2767"
    INDEX 01 00:30:28
  TRACK 33 AUDIO
    TITLE "0:"
    INDEX 01 00:31:27
  TRACK 34 AUDIO
    TITLE "8:cjc056_2768"
    INDEX 01 00:31:43
  TRACK 35 AUDIO
    TITLE "0:"
    INDEX 01 00:32:50
  TRACK 36 AUDIO
    TITLE "9:cjc056_2769"
    INDEX 01 00:32:64
  TRACK 37 AUDIO
    TITLE "0:"
    INDEX 01 00:36:46
  TRACK 38 AUDIO
    TITLE "7:cjc056_2770"
    INDEX 01 00:37:20
  TRACK 39 AUDIO
    TITLE "0:"
    INDEX 01 00:38:33
  TRACK 40 AUDIO
    TITLE "8:cjc056_2771"
    INDEX 01 00:38:45
  TRACK 41 AUDIO
    TITLE "0:"
    INDEX 01 00:39:33
  TRACK 42 AUDIO
    TITLE "9:cjc056_2772"
    INDEX 01 00:39:45
  TRACK 43 AUDIO
    TITLE "0:"
    INDEX 01 00:42:06
  TRACK 44 AUDIO
    TITLE "7:cjc056_2773"
    INDEX 01 00:42:59
  TRACK 45 AUDIO
    TITLE "0:"
    INDEX 01 00:43:72
  TRACK 46 AUDIO
    TITLE "8:cjc056_2774"
    INDEX 01 00:44:11
  TRACK 47 AUDIO
    TITLE "0:"
    INDEX 01 00:45:16
  TRACK 48 AUDIO
    TITLE "9:cjc056_2775"
    INDEX 01 00:45:30
  TRACK 49 AUDIO
    TITLE "0:"
    INDEX 01 00:48:16
  TRACK 50 AUDIO
    TITLE "7:cjc056_2776"
    INDEX 01 00:48:69
  TRACK 51 AUDIO
    TITLE "0:"
    INDEX 01 00:50:11
  TRACK 52 AUDIO
    TITLE "8:cjc056_2777"
    INDEX 01 00:50:25
  TRACK 53 AUDIO
    TITLE "0:"
    INDEX 01 00:51:20
  TRACK 54 AUDIO
    TITLE "9:cjc056_2778"
    INDEX 01 00:51:36
  TRACK 55 AUDIO
    TITLE "0:"
    INDEX 01 00:54:56
  TRACK 56 AUDIO
    TITLE "7:cjc056_2779"
    INDEX 01 00:55:34
  TRACK 57 AUDIO
    TITLE "0:"
    INDEX 01 00:57:03
  TRACK 58 AUDIO
    TITLE "8:cjc056_2780"
    INDEX 01 00:57:15
  TRACK 59 AUDIO
    TITLE "0:"
    INDEX 01 00:58:17
  TRACK 60 AUDIO
    TITLE "9:cjc056_2781"
    INDEX 01 00:58:30
  TRACK 61 AUDIO
    TITLE "0:"
    INDEX 01 01:02:01
  TRACK 62 AUDIO
    TITLE "7:cjc056_2782"
    INDEX 01 01:02:54
  TRACK 63 AUDIO
    TITLE "0:"
    INDEX 01 01:04:05
  TRACK 64 AUDIO
    TITLE "8:cjc056_2783"
    INDEX 01 01:04:19
  TRACK 65 AUDIO
    TITLE "0:"
    INDEX 01 01:05:22
  TRACK 66 AUDIO
    TITLE "9:cjc056_2784"
    INDEX 01 01:05:38
  TRACK 67 AUDIO
    TITLE "0:"
    INDEX 01 01:08:36
